<svg width="134" height="28" viewBox="0 0 134 28" fill="none" xmlns="http://www.w3.org/2000/svg">
<path d="M15.9172 5.12423V8.9196L15.0637 9.28454C14.3525 8.99259 13.5417 8.76146 12.6314 8.59115C11.7494 8.42085 10.7679 8.3357 9.68689 8.3357C9.20325 8.3357 8.62005 8.37219 7.93727 8.44518C7.28294 8.51817 6.69974 8.67631 6.18766 8.9196C5.70403 9.16289 5.46221 9.54 5.46221 10.0509C5.46221 10.5618 5.7467 10.9511 6.31568 11.2187C6.88466 11.4863 7.61011 11.7053 8.49203 11.8756C9.37395 12.0459 10.3128 12.2405 11.3085 12.4595C12.3042 12.6541 13.243 12.9461 14.1249 13.3354C15.0069 13.7246 15.7323 14.2842 16.3013 15.0141C16.8703 15.7196 17.1547 16.6685 17.1547 17.8606C17.1547 19.2961 16.728 20.4517 15.8745 21.3275C15.0495 22.1791 13.9116 22.7995 12.4607 23.1887C11.0382 23.5537 9.44507 23.7362 7.68123 23.7362C6.11654 23.7362 4.66564 23.6145 3.32853 23.3712C2.01988 23.1522 0.910368 22.9211 0 22.6778V18.7L0.85347 18.335C1.394 18.627 2.19057 18.9189 3.24319 19.2109C4.2958 19.5028 5.70403 19.6488 7.46786 19.6488C8.26444 19.6488 8.97566 19.6123 9.60154 19.5393C10.2274 19.442 10.7253 19.2717 11.0951 19.0284C11.4649 18.7851 11.6499 18.4567 11.6499 18.0431C11.6499 17.5078 11.3654 17.1186 10.7964 16.8753C10.2559 16.6077 9.53042 16.4009 8.62005 16.2549C7.73813 16.1089 6.79931 15.9386 5.8036 15.744C4.83633 15.5493 3.89751 15.2574 2.98715 14.8681C2.10523 14.4788 1.37978 13.9071 0.810797 13.1529C0.270266 12.3744 0 11.3404 0 10.0509C0 8.95609 0.213368 8.03158 0.640103 7.27737C1.09529 6.52316 1.73539 5.92709 2.56041 5.48917C3.41388 5.05124 4.4096 4.73496 5.54756 4.54032C6.71396 4.34569 8.00839 4.24837 9.43084 4.24837C10.7964 4.24837 12.0055 4.33352 13.0581 4.50383C14.1392 4.6498 15.0922 4.8566 15.9172 5.12423Z" fill="white"/>
<path d="M29.9141 23.9916C28.4632 23.9916 27.0408 23.8456 25.6468 23.5537C24.2528 23.2374 22.9726 22.7143 21.8062 21.9844C20.6682 21.2302 19.7578 20.2327 19.0751 18.9919C18.3923 17.7268 18.0509 16.1454 18.0509 14.2477C18.0509 12.423 18.3638 10.8903 18.9897 9.64948C19.6156 8.40868 20.4691 7.41118 21.5501 6.65697C22.6312 5.90276 23.8829 5.35535 25.3054 5.01474C26.7278 4.67413 28.2214 4.50383 29.7861 4.50383C30.9525 4.50383 31.9625 4.57682 32.8159 4.72279C33.6978 4.86877 34.5086 5.07557 35.2483 5.34319V9.10207L34.3948 9.46701C33.8259 9.22371 33.1715 9.01691 32.4319 8.84661C31.7206 8.6763 30.8814 8.59115 29.9141 8.59115C28.6339 8.59115 27.5386 8.79795 26.6283 9.21155C25.7179 9.60082 25.0209 10.2212 24.5373 11.0727C24.0821 11.8999 23.8545 12.9826 23.8545 14.3207C23.8545 15.3669 23.9967 16.2549 24.2812 16.9848C24.5657 17.6903 24.964 18.2621 25.4761 18.7C26.0166 19.1136 26.6709 19.4177 27.4391 19.6123C28.2072 19.807 29.0749 19.9043 30.0422 19.9043C31.1232 19.9043 32.0194 19.8191 32.7306 19.6488C33.4703 19.4542 34.1246 19.2352 34.6936 18.9919L35.547 19.3569V23.0793C34.7505 23.3712 33.897 23.5902 32.9866 23.7361C32.0763 23.9065 31.0521 23.9916 29.9141 23.9916Z" fill="white"/>
<path d="M38.0741 23.4442L38.5008 20.5247V7.75179L38.0741 4.83227H42.6402L43.323 6.98542H44.2191V20.5247L44.5178 23.4442H38.0741ZM42.0427 12.7515V8.8831L46.2248 4.86877C47.1636 4.55249 48.1451 4.39435 49.1692 4.39435C49.7382 4.39435 50.293 4.44301 50.8335 4.54032C51.374 4.61331 51.9146 4.74712 52.4551 4.94176V9.21155L51.6016 9.57649C51.0042 9.3332 50.4352 9.17506 49.8947 9.10207C49.3541 9.02908 48.8705 8.99259 48.4438 8.99259C47.2774 8.99259 46.0825 9.26021 44.8592 9.79545C43.6643 10.3307 42.7255 11.316 42.0427 12.7515Z" fill="white"/>
<path d="M56.7699 23.2252C57.1397 23.3469 57.4811 23.432 57.7941 23.4807C58.1354 23.5537 58.4768 23.5902 58.8182 23.5902C59.5294 23.5902 60.1411 23.4564 60.6532 23.1887C61.1653 22.9454 61.5493 22.4954 61.8054 21.8385L62.4455 20.1597L54.3375 1.10989H60.4825L61.336 3.81044L64.6218 12.1311L64.9632 15.306H65.3046L65.646 12.1311L68.9745 3.81044L69.828 1.10989H76.0156L66.2434 24.1741C65.8167 25.0986 65.205 25.8163 64.4085 26.3272C63.6403 26.8625 62.7869 27.2274 61.848 27.422C60.9092 27.641 59.942 27.7505 58.9462 27.7505C58.4911 27.7505 58.0074 27.7262 57.4953 27.6775C56.9833 27.6288 56.457 27.5194 55.9164 27.3491V23.5902L56.7699 23.2252Z" fill="white"/>
<path d="M86.2553 24.4295C84.8045 24.4295 83.382 24.2836 81.988 23.9916C80.594 23.6753 79.3138 23.1522 78.1474 22.4224C77.0094 21.6682 76.099 20.6707 75.4163 19.4299C74.7335 18.1647 74.3921 16.5833 74.3921 14.6856C74.3921 12.8609 74.705 11.3282 75.3309 10.0874C75.9568 8.84661 76.8103 7.84911 77.8913 7.0949C78.9724 6.34069 80.2242 5.79328 81.6466 5.45267C83.069 5.11206 84.5626 4.94176 86.1273 4.94176C87.2937 4.94176 88.3037 5.01474 89.1572 5.16072C90.0391 5.30669 90.8499 5.51349 91.5895 5.78112V9.53999L90.7361 9.90493C90.1671 9.66164 89.5128 9.45484 88.7731 9.28454C88.0619 9.11423 87.2226 9.02908 86.2553 9.02908C84.9751 9.02908 83.8799 9.23588 82.9695 9.64948C82.0591 10.0387 81.3621 10.6591 80.8785 11.5107C80.4233 12.3379 80.1957 13.4205 80.1957 14.7586C80.1957 15.8048 80.3379 16.6928 80.6224 17.4227C80.9069 18.1282 81.3052 18.7 81.8173 19.1379C82.3578 19.5515 83.0122 19.8556 83.7803 20.0503C84.5484 20.2449 85.4161 20.3422 86.3834 20.3422C87.4644 20.3422 88.3606 20.2571 89.0718 20.0868C89.8115 19.8921 90.4658 19.6732 91.0348 19.4299L91.8883 19.7948V23.5172C91.0917 23.8091 90.2382 24.0281 89.3278 24.1741C88.4175 24.3444 87.3933 24.4295 86.2553 24.4295Z" fill="white"/>
<path d="M97.7593 18.9975V3.30507L97.546 0.750488H103.691L103.478 3.30507V18.4866C103.478 19.3624 103.705 19.9706 104.16 20.3113C104.616 20.6275 105.412 20.7857 106.55 20.7857C107.204 20.7857 107.759 20.737 108.214 20.6397C108.698 20.5424 109.153 20.4086 109.58 20.2383L110.433 20.6032V24.4351C109.807 24.5811 109.082 24.7027 108.257 24.8C107.46 24.9217 106.607 24.9825 105.697 24.9825C104.16 24.9825 102.795 24.8 101.6 24.4351C100.405 24.0458 99.4663 23.4132 98.7835 22.5374C98.1007 21.6372 97.7593 20.4572 97.7593 18.9975ZM94.0894 10.2754V5.93263H96.0524L100.576 7.02745L105.185 5.93263H109.58V10.2754L107.446 10.0929H96.2231L94.0894 10.2754Z" fill="white"/>
<path d="M123.161 23.8822C121.084 23.8822 119.221 23.5659 117.571 22.9333C115.949 22.2764 114.669 21.2303 113.73 19.7949C112.791 18.3594 112.322 16.4617 112.322 14.1018C112.322 12.3501 112.592 10.866 113.133 9.64954C113.673 8.40874 114.427 7.39908 115.394 6.62054C116.39 5.842 117.542 5.28242 118.851 4.94181C120.16 4.57687 121.596 4.39441 123.161 4.39441C124.726 4.39441 126.162 4.57687 127.471 4.94181C128.78 5.28242 129.918 5.842 130.885 6.62054C131.881 7.39908 132.649 8.40874 133.189 9.64954C133.73 10.866 134 12.3501 134 14.1018C134 16.4617 133.531 18.3594 132.592 19.7949C131.653 21.2303 130.359 22.2764 128.708 22.9333C127.087 23.5659 125.238 23.8822 123.161 23.8822ZM123.161 19.7949C124.925 19.7949 126.205 19.3448 127.002 18.4446C127.798 17.5201 128.196 16.0725 128.196 14.1018C128.196 12.7637 128.026 11.681 127.684 10.8538C127.343 10.0266 126.802 9.43057 126.063 9.06563C125.323 8.67636 124.356 8.48173 123.161 8.48173C121.995 8.48173 121.027 8.67636 120.259 9.06563C119.519 9.43057 118.979 10.0266 118.638 10.8538C118.296 11.681 118.125 12.7637 118.125 14.1018C118.125 16.0725 118.524 17.5201 119.32 18.4446C120.117 19.3448 121.397 19.7949 123.161 19.7949Z" fill="white"/>
</svg>
